<?xml version="1.0" encoding="UTF-8"?>
<svg version="1.1" xmlns="http://www.w3.org/2000/svg" width="512" height="512">
<path d="M0 0 C1.40562422 -0.00374031 2.81124637 -0.00834334 4.21686524 -0.01373065 C8.0655144 -0.02592891 11.91407643 -0.02570394 15.76274049 -0.02334189 C19.91896353 -0.02293293 24.07515893 -0.03398044 28.23136902 -0.04345703 C36.36875726 -0.06005022 44.50611652 -0.0655658 52.64352027 -0.06668179 C59.25937239 -0.06763299 65.87521497 -0.07174689 72.49106407 -0.07808304 C91.25817862 -0.0956903 110.02527032 -0.10492263 128.79239319 -0.10342209 C129.80354549 -0.10334218 130.8146978 -0.10326227 131.85649109 -0.10317993 C132.8688813 -0.10309817 133.88127151 -0.10301641 134.92434021 -0.10293217 C151.33171725 -0.10211926 167.73900249 -0.12125964 184.14635298 -0.14945666 C201.00306089 -0.17819683 217.85972404 -0.19199636 234.71645707 -0.19026911 C244.17633994 -0.18960564 253.63612655 -0.1950794 263.09598732 -0.21662521 C271.14996587 -0.23485183 279.20380451 -0.23917213 287.25779478 -0.22560637 C291.36452645 -0.21908439 295.47098983 -0.21893153 299.57769585 -0.23631287 C303.34249313 -0.25208282 307.10681027 -0.24914047 310.87159612 -0.2317446 C312.86730378 -0.22724114 314.86302656 -0.2423011 316.85867578 -0.25822389 C328.79150448 -0.16712765 338.53051421 2.76630542 347.16630554 11.26742554 C355.98540241 21.47596436 356.61279877 33.22602291 356.50688171 46.19393921 C356.50603364 47.66352318 356.50651409 49.13310841 356.50820923 50.60269165 C356.50906359 54.55863951 356.49152952 58.51430979 356.47048736 62.47019362 C356.45162632 66.61680776 356.44996273 70.76342954 356.44641113 74.91007996 C356.43711819 82.747328 356.412542 90.58444923 356.38236266 98.42164165 C356.34873259 107.35036672 356.33231109 116.27909811 356.31727636 125.20787084 C356.28598972 143.5611274 356.23328323 161.91426624 356.16630554 180.26742554 C356.73291901 180.2607637 357.29953247 180.25410187 357.88331604 180.24723816 C363.82133771 180.18047415 369.75925141 180.13545585 375.69755554 180.10263062 C377.90886268 180.08761517 380.12014039 180.06719663 382.3313446 180.04110718 C385.52380163 180.004404 388.7158623 179.98762624 391.90849304 179.97445679 C392.88494781 179.95897293 393.86140259 179.94348907 394.8674469 179.92753601 C406.45166692 179.92474421 415.53442705 183.29087101 424.14286804 191.04867554 C431.56429453 198.75432687 433.48658392 207.04183305 433.41630554 217.45492554 C433.3656764 220.06218976 433.2762789 222.66166793 433.16630554 225.26742554 C433.82114929 225.24124146 434.47599304 225.21505737 435.15068054 225.18807983 C438.15563879 225.08329889 441.16021154 225.01884613 444.16630554 224.95492554 C445.71124695 224.89208374 445.71124695 224.89208374 447.28739929 224.82797241 C454.32852618 224.71585256 458.85124485 225.54818268 464.16630554 230.26742554 C470.75674896 237.0736764 469.8611719 245.75297867 469.76005554 254.58773804 C469.75834199 256.17618723 469.7584126 257.76463925 469.76017761 259.35308838 C469.75853023 262.67002694 469.73993703 265.98628485 469.70829773 269.30307007 C469.66855657 273.54436933 469.66426359 277.78478154 469.67176056 282.02623177 C469.67483616 285.30175841 469.66268991 288.57708737 469.64562988 291.85256577 C469.63862436 293.41618484 469.63547237 294.97982631 469.63632202 296.54346085 C469.63451511 298.73066659 469.61306148 300.91682742 469.58622742 303.10385132 C469.57780823 304.34547028 469.56938904 305.58708923 469.56071472 306.86633301 C468.82793853 313.18525197 465.8882895 317.15082413 461.16630554 321.26742554 C460.50630554 321.26742554 459.84630554 321.26742554 459.16630554 321.26742554 C459.17518799 322.02640137 459.18407043 322.7853772 459.19322205 323.56735229 C459.27362049 330.74630266 459.33439723 337.92503242 459.37355423 345.10431671 C459.39436264 348.79462508 459.42255474 352.48455912 459.46806335 356.1746521 C459.51176497 359.74084615 459.5354933 363.30668185 459.54581451 366.87312317 C459.55672048 368.88492666 459.58790745 370.89658749 459.61949158 372.90817261 C459.62138676 380.69078508 459.31725359 386.82962992 453.75401306 392.77731323 C448.53858776 397.44529524 443.98580878 398.51640148 437.12704468 398.53485107 C436.43012963 398.53938219 435.73321458 398.5439133 435.01518089 398.54858172 C432.6861747 398.56121484 430.35740269 398.55960608 428.02836609 398.55795288 C426.35589803 398.56393885 424.68343274 398.57074455 423.01097107 398.57830811 C418.47160378 398.59596913 413.9323119 398.60066355 409.39291358 398.60193968 C406.5553692 398.60336186 403.71784396 398.60763275 400.88030434 398.61293411 C390.97668364 398.63143524 381.07311677 398.63960468 371.16947937 398.63803101 C361.94507985 398.63682982 352.7209144 398.65792744 343.4965741 398.68951833 C335.57113728 398.71569133 327.64577686 398.72639786 319.72029716 398.72512019 C314.98938856 398.72461082 310.25868796 398.73027977 305.52782249 398.75147629 C301.07653347 398.77087575 296.62565048 398.77097154 292.17434692 398.75644302 C290.54417641 398.75435589 288.91398037 398.75905017 287.28385353 398.77116394 C270.08242584 398.89067267 270.08242584 398.89067267 263.66494274 392.85550499 C259.58792704 388.32751799 258.06398835 384.58285885 258.12333679 378.59945679 C258.12954041 377.78839478 258.13574402 376.97733276 258.14213562 376.14169312 C258.15011169 375.52318481 258.15808777 374.90467651 258.16630554 374.26742554 C257.30176824 374.26913428 257.30176824 374.26913428 256.41976553 374.27087754 C222.24917304 374.33803278 188.07859557 374.38949583 153.90795145 374.42062153 C149.80372106 374.42437358 145.69949081 374.42825655 141.59526062 374.43222046 C140.36965914 374.43340086 140.36965914 374.43340086 139.11929803 374.4346051 C125.89484419 374.44765389 112.67042953 374.47130483 99.44599891 374.49888393 C85.87337896 374.52695278 72.3007795 374.54360493 58.72813171 374.54969102 C50.35517384 374.55380439 41.98232672 374.56678944 33.60940295 374.59117494 C27.86535475 374.6070504 22.12136368 374.6118218 16.37729514 374.60792967 C13.06478292 374.60601092 9.7525044 374.61057006 6.4400177 374.62504196 C2.84342326 374.63998417 -0.75269865 374.63637232 -4.3493042 374.62818909 C-5.38920846 374.63692761 -6.42911272 374.64566614 -7.50052923 374.65466946 C-18.28523784 374.58842036 -25.95804604 371.68329034 -33.83369446 364.26742554 C-41.98037785 355.39304275 -43.27910701 346.89474962 -43.22137451 335.1862793 C-43.22676005 333.87567925 -43.23214559 332.5650792 -43.23769432 331.214764 C-43.25211386 327.59216782 -43.24791523 323.96979982 -43.24052751 320.34719133 C-43.23578943 316.43433545 -43.24831137 312.52152847 -43.25854492 308.60868835 C-43.27572597 300.94887636 -43.27657434 293.28914642 -43.27133202 285.62932016 C-43.26728764 279.40199452 -43.26873705 273.1746931 -43.27408028 266.94736862 C-43.2748287 266.06044881 -43.27557712 265.173529 -43.27634822 264.25973283 C-43.27787973 262.45784541 -43.27941808 260.655958 -43.28096319 258.85407059 C-43.29468582 241.96264313 -43.2892523 225.071262 -43.27777798 208.1798356 C-43.26784675 192.73528879 -43.28078478 177.29086179 -43.30471217 161.84633346 C-43.32910985 145.97838531 -43.33870934 130.11049294 -43.33205944 114.24252641 C-43.32856859 105.33768058 -43.33079038 96.43292688 -43.34831047 87.52809525 C-43.36304085 79.94728706 -43.36365704 72.36663588 -43.34623956 64.78583075 C-43.33773386 60.92022931 -43.33556924 57.05490825 -43.35089111 53.18932152 C-43.36731562 48.99350067 -43.3525759 44.79835474 -43.3348999 40.60253906 C-43.34450491 39.38813003 -43.35410992 38.173721 -43.36400598 36.9225117 C-43.26586256 25.59098301 -39.95252552 16.35532772 -31.83369446 8.26742554 C-21.80029238 0.62370813 -12.23391025 -0.02923665 0 0 Z M-26.83369446 82.26742554 C-26.87494446 124.50742554 -26.91619446 166.74742554 -26.95869446 210.26742554 C-26.97690247 223.61180054 -26.99511047 236.95617554 -27.01387024 250.70492554 C-27.02055852 262.6519465 -27.02055852 262.6519465 -27.02458191 274.59896851 C-27.02644749 279.92613505 -27.03378605 285.25326097 -27.04484558 290.58041382 C-27.05892861 297.37397736 -27.06267844 304.16748233 -27.05983901 310.96105957 C-27.06043284 313.45526452 -27.06440416 315.94947148 -27.07212472 318.44366455 C-27.08206759 321.81207483 -27.07967606 325.18026012 -27.07420349 328.54867554 C-27.08002882 329.52506485 -27.08585415 330.50145416 -27.091856 331.50743103 C-27.05962426 338.88545431 -26.74435477 345.98746144 -21.45869446 351.64242554 C-20.5808429 352.6130896 -20.5808429 352.6130896 -19.68525696 353.60336304 C-16.33272856 356.61639489 -13.57184779 357.51764483 -9.09357834 357.51352119 C-7.66040665 357.51949434 -7.66040665 357.51949434 -6.198282 357.52558815 C-5.15159543 357.51976247 -4.10490886 357.51393679 -3.02650452 357.50793457 C-1.3552886 357.51049784 -1.3552886 357.51049784 0.34968925 357.5131129 C4.09624323 357.51641646 7.84261952 357.5053897 11.5891571 357.49447632 C14.26952011 357.49391239 16.94987211 357.49414026 19.63023376 357.49536133 C25.40768027 357.49641041 31.18508163 357.49013142 36.96251678 357.47888565 C45.31572782 357.46263671 53.66891701 357.45742327 62.02214214 357.45490967 C75.57444076 357.45053161 89.12671531 357.43721951 102.67900085 357.41830444 C115.84436421 357.3999485 129.00972104 357.3857906 142.1750946 357.37728882 C143.39221246 357.37650065 143.39221246 357.37650065 144.63391855 357.37569655 C148.70450336 357.37308649 152.7750882 357.37055907 156.84567308 357.36807275 C190.61923469 357.34733681 224.39276717 357.31210827 258.16630554 357.26742554 C258.33994731 352.25051411 258.46664436 347.23536721 258.55082703 342.21615601 C258.5859313 340.51076782 258.6336294 338.80558885 258.69438171 337.10092163 C259.43693319 327.62498434 259.43693319 327.62498434 256.64726257 318.9559021 C254.88792261 317.53182656 253.1078127 316.42020001 251.16630554 315.26742554 C248.87635584 311.33709208 248.89838277 307.71512303 248.85990906 303.21737671 C248.85158554 302.52723984 248.84326202 301.83710297 248.83468628 301.12605286 C248.81067509 298.85410854 248.80182487 296.58245187 248.79521179 294.31039429 C248.78623809 292.72244688 248.77711612 291.13450031 248.76785278 289.54655457 C248.75138395 286.22033641 248.74366663 282.89421865 248.74076843 279.56796265 C248.73538933 275.32100727 248.69772086 271.07500515 248.65202427 266.8283186 C248.62217254 263.54846311 248.61504312 260.26883485 248.61404228 256.98885536 C248.60985538 255.42404124 248.59748283 253.85922549 248.57652473 252.29454613 C248.3784622 236.2280336 248.3784622 236.2280336 254.16630554 230.26742554 C260.05773921 225.5542786 265.74765707 225.61788194 273.10380554 225.51742554 C274.1692157 225.4877771 275.23462585 225.45812866 276.33232117 225.42758179 C278.94372341 225.35731984 281.55425558 225.30440806 284.16630554 225.26742554 C284.19208679 224.15625366 284.21786804 223.04508179 284.24443054 221.90023804 C284.64431563 210.0883498 286.07105619 199.65985811 294.65849304 190.71273804 C307.3494439 178.95752549 322.04981801 180.95208504 339.16630554 180.26742554 C339.16630554 147.92742554 339.16630554 115.58742554 339.16630554 82.26742554 C218.38630554 82.26742554 97.60630554 82.26742554 -26.83369446 82.26742554 Z M323.16630554 219.26742554 C323.16630554 221.24742554 323.16630554 223.22742554 323.16630554 225.26742554 C328.44630554 225.26742554 333.72630554 225.26742554 339.16630554 225.26742554 C339.16630554 223.28742554 339.16630554 221.30742554 339.16630554 219.26742554 C333.88630554 219.26742554 328.60630554 219.26742554 323.16630554 219.26742554 Z M356.16630554 219.26742554 C356.16630554 221.24742554 356.16630554 223.22742554 356.16630554 225.26742554 C368.70630554 225.26742554 381.24630554 225.26742554 394.16630554 225.26742554 C394.16630554 223.28742554 394.16630554 221.30742554 394.16630554 219.26742554 C381.62630554 219.26742554 369.08630554 219.26742554 356.16630554 219.26742554 Z M357.16630554 314.26742554 C357.16630554 322.51742554 357.16630554 330.76742554 357.16630554 339.26742554 C358.15630554 339.26742554 359.14630554 339.26742554 360.16630554 339.26742554 C360.16630554 331.01742554 360.16630554 322.76742554 360.16630554 314.26742554 C359.17630554 314.26742554 358.18630554 314.26742554 357.16630554 314.26742554 Z M275.16630554 325.26742554 C275.11572763 332.92120553 275.0806237 340.57494267 275.05644226 348.22885132 C275.0463649 350.83433645 275.03270284 353.43981022 275.01542664 356.04525757 C274.99125452 359.78340452 274.97983995 363.52140238 274.97099304 367.25961304 C274.96067047 368.43047455 274.9503479 369.60133606 274.93971252 370.80767822 C274.93956146 371.88864777 274.9394104 372.96961731 274.93925476 374.08334351 C274.93481354 375.03820648 274.93037231 375.99306946 274.92579651 376.97686768 C274.94410366 379.46482389 274.94410366 379.46482389 277.16630554 381.26742554 C280.08858269 381.57322981 280.08858269 381.57322981 283.58146667 381.52139282 C284.24738343 381.5245128 284.91330018 381.52763278 285.59939623 381.53084731 C287.84118918 381.53885437 290.08271348 381.5324933 292.32450867 381.5262146 C293.92745116 381.52892327 295.53039242 381.5324835 297.1333313 381.53683472 C301.49480918 381.54597581 305.85619276 381.54240741 310.21767235 381.53607655 C314.77448665 381.53102543 319.33129269 381.53570552 323.8881073 381.53884888 C331.54156448 381.54249112 339.19498311 381.53768266 346.84843445 381.52816772 C355.70644041 381.51728268 364.56435431 381.52080807 373.42235804 381.53182054 C381.01727924 381.54088607 388.61217267 381.54218229 396.20709753 381.5369432 C400.74776055 381.53381944 405.28838026 381.53342522 409.82904053 381.54001617 C414.09715157 381.54577836 418.36514352 381.54181353 422.63324165 381.53022766 C424.20303207 381.52757501 425.77283244 381.52835642 427.34261894 381.53275299 C429.47893107 381.53818623 431.61485714 381.53140185 433.75114441 381.52139282 C435.54750965 381.52026175 435.54750965 381.52026175 437.3801651 381.51910782 C440.30611161 381.5547013 440.30611161 381.5547013 442.16630554 379.26742554 C442.45896041 376.88109929 442.45896041 376.88109929 442.39335632 374.08334351 C442.39320526 373.00237396 442.3930542 371.92140442 442.39289856 370.80767822 C442.38257599 369.63681671 442.37225342 368.4659552 442.36161804 367.25961304 C442.35878815 366.06385651 442.35595825 364.86809998 442.3530426 363.6361084 C442.34181859 359.80478035 442.31670985 355.97368332 442.29130554 352.14242554 C442.28127862 349.54998099 442.27215227 346.95753279 442.26396179 344.36508179 C442.24187201 337.99911712 442.2083726 331.63328783 442.16630554 325.26742554 C428.9838816 326.45595682 415.8428078 327.83422138 402.71195984 329.49960327 C400.04556873 329.83730122 397.37845555 330.16883161 394.71122742 330.49984741 C392.99699007 330.71498685 391.28279556 330.93046788 389.56864929 331.14633179 C388.38600746 331.29323204 388.38600746 331.29323204 387.17947388 331.44309998 C383.77657373 331.87765556 380.4817128 332.39068789 377.16630554 333.26742554 C377.14052429 334.20844116 377.11474304 335.14945679 377.08818054 336.11898804 C376.51062379 348.79898391 376.51062379 348.79898391 372.16630554 353.26742554 C367.80643817 355.88380237 363.74831227 355.63486912 358.79130554 355.64242554 C357.95341492 355.66691772 357.11552429 355.69140991 356.25224304 355.71664429 C350.74882306 355.74260382 347.45289488 355.04971024 343.16630554 351.26742554 C340.63995997 347.86941687 340.77094309 344.15090148 340.54130554 340.01742554 C340.4291571 338.12250366 340.4291571 338.12250366 340.31474304 336.18930054 C340.26575867 335.22508179 340.21677429 334.26086304 340.16630554 333.26742554 C326.56060412 331.06545017 312.90204079 329.30052517 299.22880554 327.57992554 C297.87891541 327.40851547 297.87891541 327.40851547 296.50175476 327.23364258 C293.90207553 326.9042178 291.30187975 326.57924266 288.70146179 326.25570679 C287.91566238 326.15584473 287.12986298 326.05598267 286.32025146 325.95309448 C282.57312381 325.49257169 278.93839264 325.22441443 275.16630554 325.26742554 Z " fill="#5407A5" transform="translate(42.83369445800781,56.732574462890625)"/>
<path d="M0 0 C1.75793875 -0.00874829 1.75793875 -0.00874829 3.55139142 -0.01767331 C4.83483794 -0.01389399 6.11828445 -0.01011467 7.44062328 -0.00622082 C8.82104724 -0.00924161 10.20146953 -0.01313073 11.58188885 -0.01781338 C15.37470324 -0.02811165 19.1674233 -0.02590691 22.96024549 -0.02163279 C27.05102047 -0.01916885 31.14177255 -0.02817566 35.23253918 -0.03567028 C43.24701315 -0.04842904 51.26145363 -0.05020946 59.27593604 -0.04787002 C65.79034067 -0.04608783 72.30473512 -0.04783437 78.81913853 -0.05209446 C80.2092767 -0.05298724 80.2092767 -0.05298724 81.62749847 -0.05389806 C83.51015996 -0.0551098 85.39282144 -0.05632394 87.27548292 -0.05754044 C104.93748582 -0.06842074 122.59946964 -0.0662513 140.26147362 -0.06015559 C156.41885818 -0.05498733 172.57618243 -0.06623861 188.73355506 -0.08525381 C205.32233973 -0.10462709 221.91109587 -0.11288902 238.49989194 -0.10913056 C247.8138281 -0.10721757 257.12771296 -0.10971551 266.4416399 -0.1238451 C274.37169493 -0.13575344 282.30166707 -0.13717001 290.23172323 -0.12505493 C294.27726027 -0.11916209 298.32264566 -0.11807793 302.36817265 -0.13005733 C306.07365246 -0.1409022 309.77885372 -0.13782956 313.48432042 -0.12379565 C315.45553744 -0.1198917 317.42676676 -0.13070733 319.39795476 -0.14209253 C326.91301503 -0.09618779 333.48087399 0.11137191 339.45263195 5.19197559 C340.00048351 5.87260059 340.54833508 6.55322559 341.1127882 7.25447559 C341.67868664 7.93510059 342.24458508 8.61572559 342.82763195 9.31697559 C350.33354523 20.1080857 345.1752882 41.22430289 345.1752882 49.25447559 C224.3952882 49.25447559 103.6152882 49.25447559 -20.8247118 49.25447559 C-20.8247118 11.72506383 -20.8247118 11.72506383 -15.29736805 5.54744434 C-10.26365073 1.60134462 -6.38666952 0.00547334 0 0 Z " fill="#977EFE" transform="translate(36.82471179962158,72.7455244064331)"/>
<path d="M0 0 C1.33766013 -0.00551503 1.33766013 -0.00551503 2.7023437 -0.01114148 C5.70861165 -0.02220772 8.71484507 -0.02602713 11.72113037 -0.02983093 C13.86929943 -0.03609335 16.01746739 -0.04273995 18.16563416 -0.04974365 C24.01490182 -0.06717373 29.86416131 -0.07771083 35.71344852 -0.08594918 C39.36555436 -0.09109494 43.01765763 -0.09717086 46.66976166 -0.10346031 C58.08958771 -0.12251774 69.50940728 -0.13674786 80.92924619 -0.14507228 C94.12408015 -0.15484858 107.31874654 -0.18117617 120.51352143 -0.22157317 C130.70380621 -0.2517041 140.89404286 -0.26653828 151.08437133 -0.26985329 C157.17453038 -0.27220718 163.26451051 -0.28121172 169.35462189 -0.30631447 C175.08376987 -0.32954728 180.81262053 -0.33384762 186.54180336 -0.32355309 C188.64529469 -0.32305645 190.74880043 -0.32941423 192.85224724 -0.34310913 C195.72306431 -0.36075514 198.59280592 -0.35375765 201.46362305 -0.34057617 C202.71353763 -0.35703004 202.71353763 -0.35703004 203.98870301 -0.37381631 C209.27114193 -0.31522089 212.29631993 0.63527067 216.48577881 4.14717102 C217.70020088 6.57601516 217.63201861 8.17005063 217.66278076 10.88471985 C217.68203362 12.36184196 217.68203362 12.36184196 217.70167542 13.86880493 C217.70906235 14.93648605 217.71644928 16.00416718 217.72406006 17.10420227 C217.73213181 18.19931625 217.74020355 19.29443024 217.7485199 20.42272949 C217.76236785 22.74370232 217.77308681 25.06469557 217.78094482 27.38569641 C217.79815836 30.93483585 217.84203941 34.48304418 217.88616943 38.03193665 C217.89629605 40.28518499 217.90481225 42.53844127 217.91156006 44.79170227 C217.92906815 45.8533107 217.94657623 46.91491913 217.96461487 48.00869751 C217.94289262 55.39063563 217.94289262 55.39063563 215.58416748 59.29438782 C211.61493345 62.79904367 207.95122162 62.29543919 202.88890076 62.29434204 C201.98825466 62.29801873 201.08760857 62.30169542 200.15967017 62.30548352 C197.12342923 62.31655001 194.08722248 62.3203692 191.05096436 62.32417297 C188.88146861 62.33043533 186.71197395 62.33708192 184.54248047 62.34408569 C178.63543051 62.36151533 172.72838866 62.37205255 166.82131934 62.38029122 C163.13370926 62.38543663 159.44610172 62.39151253 155.75849342 62.39780235 C144.22921254 62.41685887 132.69993808 62.4310897 121.17064446 62.43941432 C107.84617468 62.44919307 94.52192065 62.47552733 81.19750565 62.51591522 C70.90872354 62.5460355 60.61998907 62.56087926 50.3311637 62.56419533 C44.18123356 62.56655027 38.03148051 62.57556838 31.88159752 62.60065651 C26.09746148 62.62387103 20.31361995 62.6281971 14.52944946 62.61789513 C12.40457494 62.61739806 10.27968625 62.62376848 8.15485573 62.63745117 C5.25741669 62.65506751 2.36104638 62.64811446 -0.53639221 62.63491821 C-1.8023489 62.65137208 -1.8023489 62.65137208 -3.09388047 62.66815835 C-7.05965784 62.62444914 -9.05730165 62.42799924 -12.5128355 60.30418682 C-15.41874098 57.17231471 -15.64331732 54.60140407 -15.70709229 50.49555969 C-15.72315521 49.55415634 -15.73921814 48.61275299 -15.75576782 47.64282227 C-15.80032489 43.34276643 -15.84127466 39.04286276 -15.86431885 34.74263 C-15.88088193 32.47592403 -15.90817633 30.20927035 -15.9463501 27.94282532 C-16.00115753 24.67082183 -16.02299854 21.40004066 -16.03765869 18.12763977 C-16.06032806 17.11807724 -16.08299744 16.10851471 -16.10635376 15.06835938 C-16.09259841 10.47915312 -16.06544446 7.18569066 -13.10650635 3.52339172 C-8.85143561 -0.37702299 -5.53723326 -0.00121213 0 0 Z " fill="#5307A5" transform="translate(56.51422119140625,326.8528289794922)"/>
<path d="M0 0 C13.99577213 11.11336563 23.97069581 27.00045868 26.93945312 44.78417969 C29.02157898 65.97622779 24.96936006 84.94459279 11.53710938 101.99902344 C-0.66941768 115.86755871 -16.56762104 124.13382125 -34.77539062 126.68652344 C-54.83930374 127.8205707 -71.92619515 123.31556491 -87.77539062 110.68652344 C-88.4225 110.20441406 -89.06960937 109.72230469 -89.73632812 109.22558594 C-102.81666576 98.98622661 -110.48521716 81.83902415 -112.77539062 65.68652344 C-114.63788841 46.62989374 -110.17563536 27.11836818 -97.93945312 12.03417969 C-73.26429712 -16.48405865 -30.77197801 -22.76584732 0 0 Z M-50.77539062 36.68652344 C-54.4994304 40.63758771 -54.4994304 40.63758771 -55.79492188 45.67480469 C-55.33634841 50.82294078 -54.69301904 53.9927595 -50.77539062 57.68652344 C-47.73068459 59.97005296 -44.56648204 60.1111649 -40.80273438 59.99902344 C-37.34882356 59.46662871 -35.35694567 57.96789766 -32.77539062 55.68652344 C-30.13338038 51.63544106 -29.07302178 48.50276694 -29.77539062 43.68652344 C-31.86443221 39.88148342 -33.92144903 36.77866316 -37.77539062 34.68652344 C-43.16395099 33.28948927 -46.13100125 33.59026385 -50.77539062 36.68652344 Z M-69.15039062 89.43652344 C-69.776875 89.90574219 -70.40335938 90.37496094 -71.04882812 90.85839844 C-73.2696226 93.20982788 -74.44238073 95.75880844 -75.77539062 98.68652344 C-61.38646466 107.57308516 -47.82135266 112.36442835 -30.77539062 108.56152344 C-23.41348116 106.52463149 -14.95271456 103.54369799 -9.77539062 97.68652344 C-13.52674571 91.83213595 -17.04481118 87.87643623 -23.77539062 85.68652344 C-30.06602799 84.47257007 -36.20193971 84.50260501 -42.58789062 84.49902344 C-43.72548828 84.48677734 -44.86308594 84.47453125 -46.03515625 84.46191406 C-58.29866759 84.35837648 -58.29866759 84.35837648 -69.15039062 89.43652344 Z " fill="#5407A5" transform="translate(153.775390625,177.3134765625)"/>
<path d="M0 0 C0.71263551 0.00446144 1.42527102 0.00892289 2.15950155 0.01351953 C3.29313391 0.00883955 3.29313391 0.00883955 4.44966793 0.00406504 C6.99547996 -0.00394598 9.54105568 0.00242065 12.08686972 0.00869775 C13.90655803 0.00598926 15.72624526 0.00242913 17.54593039 -0.00192237 C22.49829482 -0.01106557 27.45057623 -0.00749418 32.40294218 -0.0011642 C37.57635494 0.00388583 42.7497604 -0.00079286 47.92317343 -0.00393653 C56.61235476 -0.00757909 65.30150213 -0.00276947 73.99067831 0.00674462 C84.04837515 0.01762972 94.10599092 0.01410435 104.1636858 0.00309181 C112.78619838 -0.00597281 121.40868651 -0.00727039 130.03120232 -0.00203085 C135.18666841 0.0010934 140.34209635 0.00148575 145.49756002 -0.00510383 C150.34349202 -0.01086468 155.18931909 -0.0069036 160.0352397 0.00468469 C161.81788791 0.00733804 163.6005449 0.00655474 165.38318968 0.00215936 C167.80850363 -0.00327103 170.23347712 0.0035072 172.65876913 0.01351953 C173.37140464 0.00905808 174.08404016 0.00459664 174.81827068 0 C179.68083516 0.03918663 179.68083516 0.03918663 181.90913534 2.26748681 C182.16983175 4.88626122 182.16983175 4.88626122 182.18379354 8.24600244 C182.19332556 9.50070336 182.20285757 10.75540429 182.21267843 12.04812646 C182.21241704 13.42333019 182.21148016 14.79853394 182.20991659 16.17373681 C182.21380188 17.57856395 182.2181362 18.98338992 182.22290182 20.38821435 C182.23036888 23.33385041 182.23006904 26.27936662 182.22480917 29.22500634 C182.21900997 33.00496377 182.23595344 36.78443192 182.25915384 40.5643084 C182.27386461 43.46561589 182.27476662 46.36680477 182.27164412 49.26814294 C182.27215855 50.66204319 182.27741909 52.05594987 182.28745604 53.44981408 C182.29975202 55.39616197 182.29111225 57.34260844 182.28144979 59.28897119 C182.28207922 60.39768579 182.28270864 61.50640038 182.28335714 62.6487124 C182.09811735 63.94500573 182.09811735 63.94500573 181.90913534 65.26748681 C178.55391639 67.50429945 176.69188563 67.74343512 172.72871542 68.22891259 C171.45341467 68.38892755 170.17811392 68.5489425 168.86416769 68.71380639 C167.46903785 68.88044901 166.07386979 69.04677198 164.67866659 69.21279931 C163.24473418 69.3887406 161.81087168 69.56525264 160.37707663 69.74230981 C157.36906305 70.11201512 154.36045155 70.47622851 151.35127401 70.83633447 C147.51160186 71.29605776 143.67341751 71.76702768 139.83559275 72.24189973 C136.87191078 72.60771335 133.90764383 72.96858797 130.94316816 73.3279078 C129.52896351 73.49969537 128.11490864 73.6727211 126.701015 73.84704995 C119.73966139 74.70191341 112.92753415 75.50755614 105.90913534 75.26748681 C105.81116659 74.60361962 105.71319784 73.93975244 105.61226034 73.25576806 C104.71661116 67.96680524 104.02326504 64.02897682 99.90913534 60.26748681 C95.68329253 58.09287427 91.63546799 57.9011476 86.97163534 57.89248681 C85.93619589 57.85574853 85.93619589 57.85574853 84.87983847 57.81826806 C79.72615043 57.78895799 76.87519857 59.04951335 72.90913534 62.26748681 C70.48622004 65.27524373 69.75255293 67.68446627 69.33491659 71.43936181 C69.19440878 72.70264306 69.05390097 73.96592431 68.90913534 75.26748681 C55.13036575 74.72457334 41.57152633 73.08260565 27.90913534 71.26748681 C24.76362923 70.85524697 21.61790875 70.44468137 18.47212362 70.03457665 C16.53408455 69.78132273 14.59624334 69.52654789 12.65864706 69.26992822 C11.77322226 69.15310693 10.88779745 69.03628564 9.97554159 68.91592431 C8.7054122 68.74721826 8.7054122 68.74721826 7.40962362 68.575104 C4.21315095 68.18186483 1.00941962 67.89358093 -2.2004838 67.63320947 C-4.09086466 67.26748681 -4.09086466 67.26748681 -7.09086466 65.26748681 C-7.46508646 62.6487124 -7.46508646 62.6487124 -7.46317911 59.28897119 C-7.4694079 58.03427026 -7.47563669 56.77956933 -7.48205423 55.48684716 C-7.47336641 54.11163969 -7.46404845 52.73643607 -7.45414591 51.36123681 C-7.45362744 49.95641097 -7.45414461 48.55158439 -7.45565653 47.14675927 C-7.45556675 44.20105192 -7.44512633 41.25561793 -7.4270463 38.30996728 C-7.40435865 34.53008317 -7.40381432 30.75059867 -7.41056395 26.97066522 C-7.41390207 24.06935077 -7.40727686 21.16812779 -7.39743471 18.26683068 C-7.39357969 16.87294517 -7.39243575 15.47904948 -7.39402056 14.08515954 C-7.39439052 12.13875069 -7.38030938 10.19235515 -7.36552286 8.24600244 C-7.36091547 7.13728784 -7.35630808 6.02857324 -7.35156107 4.88626122 C-6.86300043 -0.02147838 -4.35883582 0.03512716 0 0 Z " fill="#3DACFE" transform="translate(314.0908646583557,297.7325131893158)"/>
<path d="M0 0 C66.33 0 132.66 0 201 0 C201 9.9 201 19.8 201 30 C134.67 30 68.34 30 0 30 C0 20.1 0 10.2 0 0 Z " fill="#A875FE" transform="translate(57,343)"/>
<path d="M0 0 C11.65203262 9.58424963 20.47198939 22.7198939 22 38 C22.83908026 50.34061939 20.12011811 61.28374575 14 72 C10.68329344 70.55955951 8.60201423 68.73676284 6.0625 66.1875 C0.7407676 61.30182929 -5.20331056 59.18502535 -12 57 C-10.80640775 54.51690184 -9.58518856 52.40370855 -8 50.125 C-3.36314323 42.8799113 -3.00230996 35.39128588 -4 27 C-6.52843146 18.98710323 -10.48382502 12.93047682 -18 9 C-25.65150514 5.38871096 -33.48466847 4.77521358 -41.625 7.125 C-50.21041093 10.44105819 -55.10166241 15.22496786 -58.9296875 23.64453125 C-61.30122542 31.0793892 -61.25777012 38.81978955 -58.25 46.0625 C-56.53177392 49.36394868 -54.40929682 52.1604716 -52 55 C-52 55.66 -52 56.32 -52 57 C-52.82242188 57.25652344 -53.64484375 57.51304687 -54.4921875 57.77734375 C-62.13077579 60.39704435 -67.25438507 63.3928129 -72.87890625 69.20703125 C-75 71 -75 71 -79 71 C-85.62623536 56.05303397 -89.09145754 41.89355647 -83 26 C-76.10697591 10.17737652 -66.98598163 -0.17542628 -50.6796875 -7.03515625 C-33.43561301 -13.24402855 -15.04138408 -10.23337946 0 0 Z " fill="#B46FFD" transform="translate(143,190)"/>
<path d="M0 0 C1.09142492 -0.01169993 1.09142492 -0.01169993 2.20489883 -0.02363622 C4.63809396 -0.04354801 7.06972353 -0.02779642 9.50292969 -0.01205444 C11.24923617 -0.01883098 12.9955355 -0.02773432 14.74182129 -0.03860474 C19.48155739 -0.06140045 24.22074937 -0.05256066 28.960495 -0.03670931 C33.92029285 -0.02405173 38.88004407 -0.03579003 43.83984375 -0.04364014 C52.16903042 -0.05273711 60.49799542 -0.04074752 68.82714844 -0.01693726 C78.45726917 0.0102741 88.08686063 0.00145997 97.71696854 -0.02606928 C105.98464107 -0.04875797 114.25215426 -0.05196161 122.51984787 -0.03887594 C127.45802232 -0.03108011 132.39594797 -0.03004347 137.33410645 -0.04655838 C141.97674845 -0.06100038 146.61870799 -0.05098652 151.26127625 -0.0220871 C152.96525438 -0.01547481 154.66928994 -0.01737644 156.37324524 -0.02840042 C158.69947558 -0.04206294 161.02351853 -0.02493538 163.34960938 0 C165.3019046 0.00282769 165.3019046 0.00282769 167.29364014 0.00571251 C171.55008173 0.79779976 173.03949585 2.26459599 175.67480469 5.63491821 C176.24690692 9.13904441 176.11521167 10.85896305 174.36230469 13.94741821 C170.99676499 17.31295791 167.1571239 16.76278752 162.65931702 16.76863098 C161.94087079 16.77089654 161.22242456 16.77316209 160.48220724 16.7754963 C158.06860696 16.78183949 155.65506278 16.78100674 153.24145508 16.78018188 C151.5135338 16.78317316 149.7856132 16.78657561 148.05769348 16.7903595 C143.35940172 16.79920644 138.66112816 16.80153789 133.96282887 16.80217528 C130.04369076 16.80312386 126.12455691 16.80680153 122.20542043 16.81034738 C112.9612449 16.8184944 103.7170791 16.82093137 94.47290039 16.82022095 C84.92930026 16.81961992 75.38575661 16.83017623 65.84217077 16.84596461 C57.65442706 16.85902849 49.46670183 16.86440534 41.27894777 16.86376554 C36.38611552 16.86351023 31.49333345 16.86637937 26.60051155 16.87694359 C21.99997915 16.88660532 17.39954513 16.88671702 12.79900932 16.87942696 C11.10911287 16.87837875 9.41921036 16.88075795 7.72932434 16.88678741 C5.42519158 16.89447701 3.12140112 16.88988285 0.817276 16.88215637 C-0.47302489 16.88270114 -1.76332579 16.88324591 -3.09272671 16.88380718 C-6.16494029 16.6472573 -7.82604943 16.3798996 -10.32519531 14.63491821 C-12.67069205 11.1166731 -12.90510934 9.77716127 -12.32519531 5.63491821 C-8.55680003 0.79927101 -6.03761248 0.00874484 0 0 Z " fill="#5408A5" transform="translate(174.3251953125,89.36508178710938)"/>
<path d="M0 0 C1.77636086 -0.00832352 1.77636086 -0.00832352 3.58860779 -0.01681519 C6.82852893 -0.02659064 10.06740125 -0.01403001 13.30722356 0.00946999 C16.70061597 0.02960743 20.09397402 0.02369802 23.4874115 0.0213623 C29.18445851 0.02141584 34.88117343 0.04115124 40.578125 0.07324219 C47.16238418 0.1101513 53.74620875 0.118915 60.33055788 0.11194468 C66.66896811 0.10563777 73.00722948 0.11639621 79.34560966 0.13591003 C82.04130615 0.14407958 84.73692652 0.14679442 87.43263435 0.1452179 C91.19621802 0.1470115 94.95917982 0.16835669 98.72265625 0.1953125 C99.84121002 0.1923819 100.95976379 0.18945129 102.11221313 0.18643188 C103.13701279 0.19778168 104.16181244 0.20913147 105.21766663 0.2208252 C106.10715531 0.22455391 106.996644 0.22828262 107.91308689 0.23212433 C110.7900988 0.6945501 112.16963523 1.65721269 114.29663086 3.61523438 C115.36041989 6.26362581 115.54541121 8.77913837 115.29663086 11.61523438 C113.53199025 14.47516915 112.30097389 16.11306286 109.29663086 17.61523438 C107.70920396 17.71205615 106.11774825 17.74591118 104.52737427 17.74894714 C103.52070709 17.75321213 102.51403992 17.75747711 101.47686768 17.76187134 C100.36825378 17.76141815 99.25963989 17.76096497 98.11743164 17.76049805 C96.95313629 17.76385666 95.78884094 17.76721527 94.58926392 17.77067566 C90.72347967 17.78020888 86.85773864 17.78212998 82.99194336 17.78320312 C80.99035566 17.7856031 78.98876796 17.78800463 76.98718059 17.79066354 C70.6900996 17.79881151 64.39303292 17.80124749 58.09594727 17.80053711 C51.59874057 17.79993646 45.10161694 17.81048495 38.60443127 17.82628077 C33.0281498 17.83935497 27.45189547 17.84472105 21.87559879 17.8440817 C18.54434224 17.84382664 15.21317617 17.84759906 11.8819313 17.85725975 C8.16608994 17.8670262 4.45046376 17.86419468 0.73461914 17.8581543 C-0.36994629 17.8637738 -1.47451172 17.86939331 -2.61254883 17.87518311 C-4.13100906 17.86889137 -4.13100906 17.86889137 -5.68014526 17.86247253 C-6.55878172 17.8630173 -7.43741817 17.86356207 -8.34267998 17.86412334 C-10.91358804 17.59307086 -12.5154721 16.97189802 -14.70336914 15.61523438 C-17.00305477 12.39567449 -17.25685552 9.48963905 -16.70336914 5.61523438 C-12.35567472 -0.80736253 -7.06577982 -0.08393434 0 0 Z " fill="#5307A5" transform="translate(238.703369140625,180.384765625)"/>
<path d="M0 0 C0.85072083 -0.0049649 1.70144165 -0.00992981 2.57794189 -0.01504517 C5.39458014 -0.02966017 8.21116208 -0.03646743 11.02783203 -0.04199219 C12.98454795 -0.04774385 14.94126385 -0.05350158 16.89797974 -0.05926514 C21.00197614 -0.06977301 25.10595297 -0.07561719 29.20996094 -0.07910156 C34.46812006 -0.08458813 39.72602048 -0.10862056 44.98409843 -0.13707352 C49.02642574 -0.15569815 53.06869069 -0.16090539 57.11105728 -0.16243744 C59.04953553 -0.16546451 60.98801266 -0.17349486 62.92644882 -0.18662262 C65.63866618 -0.20368061 68.35025074 -0.20180358 71.0625 -0.1953125 C71.86267548 -0.20452728 72.66285095 -0.21374207 73.48727417 -0.22323608 C78.0495337 -0.18903893 81.04552002 0.30004224 84.66064453 3.16113281 C86.22535686 6.29055746 86.35766411 9.77195505 85.66064453 13.16113281 C84.18528748 15.25718689 84.18528748 15.25718689 81.66064453 17.16113281 C78.60098852 17.56079642 75.9005396 17.71840848 72.84057617 17.69458008 C71.95069504 17.70319565 71.0608139 17.71181122 70.14396667 17.72068787 C67.20261541 17.7433889 64.26221376 17.73660111 61.32080078 17.72753906 C59.27583024 17.73277304 57.23086213 17.73904869 55.18589783 17.74632263 C50.89945112 17.75673467 46.61333621 17.7521541 42.3269043 17.73754883 C36.83420983 17.72036541 31.34256184 17.74384694 25.84998417 17.77903843 C21.62659271 17.80100166 17.40345201 17.79957343 13.18002129 17.79127312 C11.15502208 17.7904529 9.13000458 17.79732963 7.10505867 17.81204414 C4.27275466 17.82946876 1.44233565 17.81496479 -1.38989258 17.79223633 C-2.22589996 17.80392853 -3.06190735 17.81562073 -3.92324829 17.82766724 C-8.21180649 17.75766258 -9.86308091 17.53153708 -13.36354065 14.80918884 C-15.33935547 12.16113281 -15.33935547 12.16113281 -15.90185547 9.16113281 C-15.2114169 5.47879377 -13.97121619 3.79299354 -11.33935547 1.16113281 C-7.5365177 -0.10647978 -3.9627185 0.00550812 0 0 Z " fill="#5406A5" transform="translate(237.33935546875,224.8388671875)"/>
<path d="M0 0 C2.00821663 -0.00150417 4.01643266 -0.00493849 6.02464294 -0.01020813 C10.22172435 -0.01452819 14.41803437 0.00221401 18.61499023 0.03442383 C23.98065007 0.07422903 29.34486634 0.06488617 34.71057224 0.04018879 C38.85348743 0.02597281 42.99606829 0.03611813 47.13895988 0.0537014 C49.11680235 0.05952927 51.09467934 0.05828142 53.07251167 0.0496769 C55.84150784 0.04163988 58.60842256 0.06604292 61.37719727 0.09887695 C62.58922066 0.08605179 62.58922066 0.08605179 63.82572937 0.07296753 C69.78144267 0.19419293 73.89313166 1.96434196 78.49609375 5.76171875 C82.79010137 11.26685673 83.62177842 15.06208989 83.55859375 21.94921875 C83.54957031 23.22152344 83.54054688 24.49382812 83.53125 25.8046875 C83.51964844 26.78050781 83.50804687 27.75632812 83.49609375 28.76171875 C81.18609375 28.76171875 78.87609375 28.76171875 76.49609375 28.76171875 C76.44710937 27.80910156 76.398125 26.85648437 76.34765625 25.875 C76.23550781 23.99361328 76.23550781 23.99361328 76.12109375 22.07421875 C76.01667969 20.21216797 76.01667969 20.21216797 75.91015625 18.3125 C75.39311476 13.79462605 75.39311476 13.79462605 73.49609375 9.76171875 C68.70238614 7.6614215 64.15016182 7.47059082 58.99975586 7.48706055 C57.75227821 7.47939415 57.75227821 7.47939415 56.479599 7.47157288 C53.74413765 7.45772843 51.00892961 7.45862931 48.2734375 7.4609375 C46.36584887 7.45704865 44.45826109 7.45271359 42.55067444 7.44795227 C38.55873808 7.44050182 34.56689019 7.44077349 30.57495117 7.44604492 C25.46146061 7.45184772 20.34833129 7.43488329 15.23490047 7.41170025 C11.29807929 7.39696702 7.36134529 7.39609048 3.42450142 7.39920998 C1.53906092 7.39869688 -0.34638446 7.3934613 -2.23179817 7.38339806 C-4.86709228 7.37105457 -7.50168001 7.37781189 -10.13696289 7.3894043 C-10.91372375 7.38176056 -11.69048462 7.37411682 -12.49078369 7.36624146 C-17.00853049 7.41014285 -19.90094076 7.98480096 -23.50390625 10.76171875 C-26.00885396 14.17336532 -25.89961007 17.88438743 -26.12890625 22.01171875 C-26.20367187 23.275 -26.2784375 24.53828125 -26.35546875 25.83984375 C-26.40445312 26.8040625 -26.4534375 27.76828125 -26.50390625 28.76171875 C-28.81390625 28.76171875 -31.12390625 28.76171875 -33.50390625 28.76171875 C-34.30837071 12.85119946 -34.30837071 12.85119946 -29.50390625 6.76171875 C-21.73103396 -1.68233298 -10.50953434 -0.09098619 0 0 Z " fill="#3EA9FD" transform="translate(376.50390625,253.23828125)"/>
<path d="M0 0 C1.02665268 -0.00241196 2.05330536 -0.00482391 3.11106873 -0.00730896 C5.27712881 -0.00633117 7.44321409 0.00704614 9.60913086 0.03198242 C12.92582936 0.06632585 16.23986847 0.05262821 19.55664062 0.03320312 C21.66277176 0.04010066 23.76889603 0.0497722 25.875 0.0625 C26.86673721 0.05754013 27.85847443 0.05258026 28.88026428 0.04747009 C35.7059339 0.16438683 35.7059339 0.16438683 38.97241211 2.44555664 C40.93928253 5.51585201 41.24184742 8.01000906 41.37109375 11.62890625 C40.56862636 14.32811476 39.97428037 15.2642992 37.57066345 16.71720886 C35.15888861 17.71686294 33.46658092 17.88810995 30.86547852 17.90356445 C29.98098526 17.91309647 29.096492 17.92262848 28.18519592 17.93244934 C27.23720627 17.93153793 26.28921661 17.93062653 25.3125 17.9296875 C24.33119614 17.93397263 23.34989227 17.93825775 22.33885193 17.94267273 C20.26521577 17.94841111 18.19155948 17.94891992 16.11791992 17.94458008 C12.94870595 17.94142131 9.78042664 17.96488159 6.61132812 17.99023438 C4.59505326 17.99250756 2.57877589 17.99321078 0.5625 17.9921875 C-0.85644814 18.00600212 -0.85644814 18.00600212 -2.30406189 18.02009583 C-7.20129322 17.98573095 -10.69473972 17.9026396 -14.62890625 14.62890625 C-16.19826219 11.49019437 -15.98091728 9.09034803 -15.62890625 5.62890625 C-11.41049839 -0.47739839 -6.8108475 -0.09123821 0 0 Z " fill="#5306A5" transform="translate(237.62890625,269.37109375)"/>
<path d="M0 0 C3.54202539 2.4577319 4.7820239 3.81324121 5.5625 8.0625 C4.88178485 11.61734581 3.79927541 12.777046 1 15 C-2.58019011 16.79009505 -6.56196733 16.46638897 -10.3125 15.25 C-12.51393337 13.61930861 -13.21395017 12.64398578 -14 10 C-13.87336669 6.39095071 -13.74126511 3.95746743 -11.5 1.0625 C-7.64668488 -0.57515893 -4.11085023 -0.77535609 0 0 Z " fill="#5609A7" transform="translate(62,90)"/>
<path d="M0 0 C3.0625 1.5625 3.0625 1.5625 5 4 C5.54051695 7.78361865 5.54762568 10.0090583 3.6875 13.375 C1.17132691 15.7979815 -0.94047726 15.99448864 -4.375 16.3125 C-8.66450844 15.94271479 -10.14640582 15.18931114 -13 12 C-13.99666889 8.81065956 -14.31016328 6.93048983 -13.25 3.75 C-9.86206893 -0.9931035 -5.26408203 -0.72830557 0 0 Z " fill="#5609A7" transform="translate(123,90)"/>
<path d="M0 0 C2.69284213 0.8503712 3.63096753 1.50795671 5.3125 3.75 C6.28307319 6.92642136 5.98874457 8.83601738 5 12 C2.87449882 14.44754681 1.26747832 15.72601984 -1.93359375 16.41796875 C-5.90988129 16.69608338 -7.64297999 16.24545126 -11 13.9375 C-13.51613309 10.24192952 -13.79720496 8.38462729 -13 4 C-9.16154426 -0.67811794 -5.64477487 -0.53759761 0 0 Z " fill="#5609A7" transform="translate(92,90)"/>
</svg>
